<?xml version="1.0" standalone="no"?>
<!DOCTYPE svg PUBLIC "-//W3C//DTD SVG 20010904//EN"
 "http://www.w3.org/TR/2001/REC-SVG-20010904/DTD/svg10.dtd">
<svg version="1.0" xmlns="http://www.w3.org/2000/svg"
 width="881.000000pt" height="970.000000pt" viewBox="0 0 881.000000 970.000000"
 preserveAspectRatio="xMidYMid meet">

<g transform="translate(0.000000,970.000000) scale(0.100000,-0.100000)"
fill="#000000" stroke="none">
<path d="M5213 9598 c-70 -372 -419 -751 -977 -1062 -152 -84 -285 -145 -601
-274 -916 -374 -1271 -572 -1552 -865 -144 -152 -230 -298 -275 -469 -20 -77
-21 -113 -25 -498 -3 -228 -3 -437 -1 -465 l3 -50 14 75 c46 257 170 482 370
672 245 234 579 432 1161 688 548 241 661 297 1170 578 200 110 354 216 454
312 99 95 153 169 201 274 64 140 68 168 72 621 2 226 3 437 1 470 l-3 60 -12
-67z"/>
<path d="M5137 6686 c-51 -300 -284 -607 -667 -880 -242 -173 -469 -291 -861
-450 -926 -374 -1310 -585 -1593 -873 -104 -107 -158 -181 -216 -298 -92 -184
-93 -192 -97 -720 l-2 -460 19 90 c54 251 165 443 371 640 246 236 561 422
1184 698 515 228 672 305 1115 550 286 158 414 249 536 380 76 82 123 155 161
247 52 130 56 165 60 610 3 228 3 438 1 465 l-3 50 -8 -49z"/>
<path d="M3300 4120 c-221 -59 -397 -203 -495 -405 -57 -119 -76 -202 -76
-330 0 -255 112 -475 318 -621 135 -97 264 -138 438 -138 145 -1 211 15 345
81 81 40 109 60 190 142 74 74 105 115 137 176 103 200 118 411 43 618 -82
224 -252 386 -490 467 -96 33 -306 38 -410 10z"/>
<path d="M1159 1164 c-66 -20 -130 -81 -165 -156 -27 -58 -29 -72 -29 -178 0
-105 2 -120 27 -170 36 -74 74 -108 193 -175 115 -64 135 -84 135 -132 0 -69
-44 -103 -132 -103 -64 1 -109 16 -170 58 l-46 32 -7 -93 c-10 -141 -5 -179
26 -194 109 -52 301 -56 406 -8 71 32 117 75 149 138 64 125 69 261 14 374
-36 73 -80 111 -195 172 -122 65 -154 109 -124 174 17 37 50 50 114 45 45 -4
67 -13 117 -47 33 -23 62 -40 63 -39 2 2 6 60 10 130 l7 126 -32 17 c-88 46
-262 60 -361 29z"/>
<path d="M4683 1166 c-131 -42 -232 -169 -277 -346 -41 -161 -28 -412 29 -551
83 -206 282 -303 486 -239 162 51 259 194 290 425 32 246 -27 497 -148 622
-67 68 -139 97 -248 100 -55 2 -106 -3 -132 -11z m223 -143 c53 -27 99 -90
125 -171 31 -96 38 -328 14 -439 -40 -182 -115 -263 -243 -263 -161 0 -248
136 -259 405 -11 263 54 433 183 481 51 18 130 13 180 -13z"/>
<path d="M20 595 l0 -565 144 0 143 0 -1 565 -1 565 -142 0 -143 0 0 -565z"/>
<path d="M504 595 l-1 -566 146 3 146 3 0 48 c-1 26 -2 279 -3 562 l-2 515
-142 0 -143 0 -1 -565z"/>
<path d="M1733 1078 c4 -46 7 -300 7 -565 l0 -483 294 0 c162 0 297 3 299 8 3
4 8 62 12 129 l7 121 -166 -5 -166 -6 0 112 0 111 134 0 133 0 7 37 c3 21 6
73 6 117 l0 79 -142 -4 -143 -4 -3 98 -3 97 151 0 c112 0 152 3 155 13 2 6 5
60 8 120 l4 107 -300 0 -300 0 6 -82z"/>
<path d="M2488 618 c1 -299 2 -553 2 -565 0 -23 2 -23 135 -23 l135 0 0 211
c0 209 0 210 21 207 18 -2 32 -30 81 -163 100 -272 88 -250 133 -253 73 -7
245 9 245 22 0 6 -16 45 -36 86 -20 41 -65 144 -100 229 -60 142 -64 155 -47
164 64 35 120 134 132 233 16 134 -20 265 -90 328 -63 58 -110 66 -378 66
l-236 0 3 -542z m407 288 c31 -31 42 -104 24 -153 -18 -47 -56 -74 -113 -80
l-46 -6 0 132 0 131 55 0 c45 0 60 -4 80 -24z"/>
<path d="M3723 1078 c4 -46 7 -300 7 -565 l0 -483 77 0 76 0 -6 285 c-4 157
-4 285 1 285 7 0 150 -230 273 -442 l74 -128 88 0 c73 0 87 3 87 16 0 9 -51
96 -113 193 -63 97 -146 231 -186 298 l-72 121 165 249 166 248 -77 3 c-53 2
-80 -1 -88 -10 -6 -7 -45 -67 -85 -133 -96 -156 -220 -344 -232 -351 -7 -4 -8
81 -3 245 l8 251 -83 0 -83 0 6 -82z"/>
<path d="M5364 1099 c3 -34 6 -289 6 -565 l0 -504 249 0 248 0 7 46 c3 26 6
60 6 75 l0 29 -181 0 -181 0 3 490 4 490 -84 0 -84 0 7 -61z"/>
<path d="M5998 1153 c-2 -5 -2 -259 0 -565 l3 -558 75 0 c52 0 74 4 75 13 1 6
0 136 -1 287 l-1 275 24 -35 c33 -48 295 -485 309 -515 11 -24 15 -25 99 -25
48 0 91 4 94 10 3 5 -46 89 -108 187 -144 224 -260 415 -260 429 0 6 67 111
150 235 82 123 155 234 162 247 12 22 12 22 -67 22 l-79 0 -76 -122 c-42 -68
-115 -181 -161 -253 l-86 -130 0 253 0 252 -74 0 c-41 0 -76 -3 -78 -7z"/>
<path d="M6996 1108 c-8 -29 -31 -114 -51 -188 -20 -74 -81 -297 -136 -496
-54 -199 -99 -368 -99 -377 0 -14 10 -15 68 -10 37 3 68 7 70 8 2 2 20 76 41
166 l38 164 160 3 160 2 22 -92 c11 -51 29 -129 39 -173 l18 -80 77 1 c43 1
80 3 82 6 3 2 -43 187 -100 411 -58 224 -121 475 -141 557 l-36 150 -99 0 -98
0 -15 -52z m168 -370 l53 -228 -127 0 -128 0 66 262 c59 237 67 260 75 228 5
-19 32 -137 61 -262z"/>
<path d="M7446 1138 c-3 -13 -6 -44 -6 -70 l0 -48 126 0 126 0 -4 -495 -3
-496 79 3 79 3 -2 492 -2 492 123 3 123 3 3 68 3 67 -319 0 -320 0 -6 -22z"/>
<path d="M8280 1138 c-5 -13 -41 -142 -79 -288 -39 -146 -104 -386 -146 -535
-41 -148 -75 -272 -75 -276 0 -8 132 1 142 10 4 3 24 79 44 169 l38 162 160
-2 160 -3 40 -173 40 -174 72 4 c40 2 76 7 80 10 8 9 -3 55 -159 668 l-114
445 -97 3 c-92 3 -97 2 -106 -20z m100 -132 c0 -3 25 -113 55 -245 30 -132 55
-243 55 -246 0 -3 -56 -5 -125 -5 -69 0 -125 3 -125 6 0 24 125 494 132 494 4
0 8 -2 8 -4z"/>
</g>
</svg>
