<?xml version="1.0" encoding="UTF-8" standalone="no" ?>
<!DOCTYPE svg PUBLIC "-//W3C//DTD SVG 1.1//EN" "http://www.w3.org/Graphics/SVG/1.1/DTD/svg11.dtd">
<svg xmlns="http://www.w3.org/2000/svg" xmlns:xlink="http://www.w3.org/1999/xlink" version="1.1" width="1080" height="1080" viewBox="0 0 1080 1080" xml:space="preserve">
<desc>Created with Fabric.js 5.2.4</desc>
<defs>
</defs>
<g transform="matrix(1 0 0 1 540 540)" id="6b84ae78-81f0-496b-899d-320fbf31270b"  >
</g>
<g transform="matrix(1 0 0 1 540 540)" id="b6fb1dce-78d5-4076-b023-8fd515de3e76"  >
<rect style="stroke: none; stroke-width: 1; stroke-dasharray: none; stroke-linecap: butt; stroke-dashoffset: 0; stroke-linejoin: miter; stroke-miterlimit: 4; fill: rgb(255,255,255); fill-rule: nonzero; opacity: 1; visibility: hidden;" vector-effect="non-scaling-stroke"  x="-540" y="-540" rx="0" ry="0" width="1080" height="1080" />
</g>
<g transform="matrix(44.88 0 0 44.88 539.33 539.33)"  >
<path style="stroke: rgb(0,0,0); stroke-width: 0; stroke-dasharray: none; stroke-linecap: butt; stroke-dashoffset: 0; stroke-linejoin: miter; stroke-miterlimit: 4; fill: rgb(69,80,91); fill-rule: nonzero; opacity: 1;" vector-effect="non-scaling-stroke"  transform=" translate(-12, -12)" d="M 10.457 6.161 C 10.395854845500894 6.14288607343923 10.329989850269387 6.150178040965504 10.274287695111845 6.1812282288067015 C 10.218585539954303 6.212278416647899 10.17774705618115 6.264466428972194 10.161000000000001 6.326 C 9.361 9.111 12.98 11.905 15.375000000000002 13.754 C 16.028000000000002 14.258 16.591 14.693 16.966 15.046 C 18.711000000000002 16.688 19.53 17.897 19.699 18.224 C 19.75063982085606 18.324203274903173 19.865057308061953 18.374963032863604 19.974 18.346 C 20.021 18.333 24.7 17.046 23.908 13.772 C 23.902873654344507 13.751116542937488 23.89514660546973 13.730959024133723 23.885 13.712 L 18.204 3.407 L 18.93 0.295 C 18.94782912374185 0.21879660646765087 18.927383551885768 0.13868631562997874 18.875216766068302 0.08034712385701165 C 18.823049980250836 0.022007932084044557 18.745714909347267 -0.007231885202630739 18.668 0.0020000000000000018 C 16.968 0.203 15.552999999999999 0.437 14.168 1.427 C 9.323999999999998 1.104 5.449999999999999 2.327 2.955 4.966 C 0.334 7.737 -0.246 11.515 0.085 14.128 C 0.848 19.783 5.276 22.759 9.166 23.66 C 10.159 23.889 11.14 24 12.089 24 C 15.433 24 18.386 22.619 20.035 20.15 C 20.103388823461383 20.04674280789763 20.08197484138341 19.90840399078691 19.98556758070919 19.8306561999206 C 19.88916032003497 19.752908409054296 19.749424970413397 19.761288087697643 19.663 19.849999999999998 C 16.252 23.377 10.661 23.983999999999998 6.367000000000001 21.293999999999997 C 1.8820000000000006 18.483999999999998 0.16500000000000092 12.883999999999997 2.4570000000000007 8.544999999999996 C 4.741 4.221 8.801 2.362 13.888 3.31 C 13.943999999999999 3.32 14.003 3.31 14.052999999999999 3.281 L 14.388 3.084 C 15.314 2.5380000000000003 16.349 1.927 17.261 1.8050000000000002 L 16.567 3.798 C 16.543877489277882 3.865026607376795 16.55118267860351 3.9388090195656416 16.587 4 L 22.669 14.192 C 22.476 16.22 20.963 16.698 20.443 16.803 C 20.156000000000002 16.158 19.629 15.439 18.137 14 C 17.715 13.593 16.927 13.059 16.013 12.44 C 13.649000000000001 10.838999999999999 10.076 8.42 10.622000000000002 6.4559999999999995 C 10.639241392707996 6.39500015619969 10.631543360347015 6.329649514475102 10.600599525751628 6.274325688986378 C 10.56965569115624 6.219001863497654 10.518001051010053 6.178237121042759 10.457000000000003 6.161 z" stroke-linecap="round" />
</g>
<g transform="matrix(NaN NaN NaN NaN 0 0)"  >
<g style=""   >
</g>
</g>
</svg>