<?xml version="1.0" standalone="no"?>
<!DOCTYPE svg PUBLIC "-//W3C//DTD SVG 20010904//EN"
 "http://www.w3.org/TR/2001/REC-SVG-20010904/DTD/svg10.dtd">
<svg version="1.0" xmlns="http://www.w3.org/2000/svg"
 width="155.000000pt" height="125.000000pt" viewBox="0 0 155.000000 125.000000"
 preserveAspectRatio="xMidYMid meet">

<g transform="translate(0.000000,125.000000) scale(0.100000,-0.100000)"
fill="#000000" stroke="none">
<path d="M694 1183 c3 -10 7 -39 8 -65 2 -27 8 -48 14 -48 7 0 7 20 0 65 -5
36 -13 65 -18 65 -5 0 -7 -8 -4 -17z"/>
<path d="M807 1193 c-14 -13 -6 -42 19 -73 15 -17 23 -34 20 -38 -10 -9 -39
11 -52 37 -9 17 -13 19 -17 8 -3 -8 1 -24 9 -35 11 -17 24 -21 64 -20 l49 1
-28 26 c-38 34 -64 77 -56 91 7 11 2 14 -8 3z"/>
<path d="M992 1147 c-41 -43 -17 -109 39 -106 20 1 21 2 4 6 -47 12 -60 57
-29 101 20 29 13 28 -14 -1z"/>
<path d="M1060 1145 c7 -9 15 -13 17 -11 7 7 -7 26 -19 26 -6 0 -6 -6 2 -15z"/>
<path d="M658 1105 c2 -19 9 -35 14 -35 6 0 7 11 3 28 -10 41 -22 46 -17 7z"/>
<path d="M585 1120 c3 -5 8 -10 11 -10 2 0 4 5 4 10 0 6 -5 10 -11 10 -5 0 -7
-4 -4 -10z"/>
<path d="M509 1106 c-8 -8 13 -76 23 -76 11 0 9 20 -5 53 -7 16 -15 26 -18 23z"/>
<path d="M550 1088 c0 -21 28 -50 42 -42 7 4 5 10 -5 16 -9 5 -21 16 -26 26
-10 16 -10 16 -11 0z"/>
<path d="M627 1087 c-3 -9 -2 -19 4 -23 15 -9 18 -2 9 20 -6 17 -7 18 -13 3z"/>
<path d="M450 1085 c0 -17 31 -75 40 -75 6 0 3 11 -6 25 -9 14 -14 32 -10 40
3 9 0 15 -9 15 -8 0 -15 -2 -15 -5z"/>
<path d="M1087 1073 c-9 -9 -9 -51 1 -56 4 -3 7 10 8 29 1 37 0 37 -9 27z"/>
<path d="M1133 1067 c4 -10 2 -28 -4 -39 -9 -16 -8 -19 3 -16 18 6 23 47 7 62
-9 8 -10 7 -6 -7z"/>
<path d="M420 1050 c0 -5 5 -10 11 -10 5 0 7 5 4 10 -3 6 -8 10 -11 10 -2 0
-4 -4 -4 -10z"/>
<path d="M725 1049 c-36 -4 -19 -6 60 -8 61 -1 137 -8 170 -16 76 -18 91 -18
40 1 -48 18 -201 31 -270 23z"/>
<path d="M1168 1021 c-9 -16 -14 -32 -10 -35 6 -6 42 43 42 57 0 16 -16 5 -32
-22z"/>
<path d="M550 1016 c-199 -67 -334 -204 -354 -356 -4 -32 -3 -39 3 -25 5 11
10 31 10 45 2 48 51 132 110 190 69 67 167 119 281 149 44 12 63 20 45 20 -16
-1 -59 -11 -95 -23z"/>
<path d="M1214 1026 c4 -10 -1 -29 -9 -42 -9 -13 -11 -24 -6 -24 5 0 16 11 24
24 14 21 14 26 1 42 -15 19 -15 19 -10 0z"/>
<path d="M350 1020 c0 -5 5 -10 10 -10 6 0 10 5 10 10 0 6 -4 10 -10 10 -5 0
-10 -4 -10 -10z"/>
<path d="M390 1018 c0 -8 7 -21 16 -28 12 -11 18 -10 32 4 16 16 16 17 -2 10
-13 -5 -23 -1 -32 11 -12 15 -14 16 -14 3z"/>
<path d="M328 1014 c-7 -7 24 -64 35 -64 10 0 9 2 -9 38 -17 34 -18 35 -26 26z"/>
<path d="M1120 968 c99 -48 182 -125 224 -208 18 -35 26 -45 21 -26 -7 32 -34
75 -74 119 -22 24 -23 29 -11 37 8 5 11 10 6 10 -5 0 1 11 14 25 13 14 20 28
16 32 -3 4 -19 -8 -34 -27 l-28 -33 -60 39 c-63 42 -127 74 -147 74 -7 0 26
-19 73 -42z"/>
<path d="M1254 988 c0 -13 -4 -32 -8 -43 -8 -20 -7 -20 8 -1 16 20 22 66 9 66
-5 0 -8 -10 -9 -22z"/>
<path d="M298 963 c12 -8 22 -23 23 -32 0 -9 3 -11 5 -4 8 18 -15 53 -34 52
-14 0 -13 -3 6 -16z"/>
<path d="M260 928 c0 -21 36 -43 45 -28 3 5 -1 10 -9 10 -8 0 -20 8 -25 18
-10 16 -10 16 -11 0z"/>
<path d="M1333 926 c4 -10 -1 -24 -13 -36 -22 -22 -19 -25 11 -10 21 12 26 45
7 56 -8 5 -9 2 -5 -10z"/>
<path d="M210 906 c0 -9 30 -14 35 -6 4 6 -3 10 -14 10 -12 0 -21 -2 -21 -4z"/>
<path d="M200 877 c0 -35 58 -49 68 -17 5 13 3 13 -13 0 -15 -13 -19 -12 -36
9 -13 16 -19 19 -19 8z"/>
<path d="M1350 865 c-18 -20 -21 -28 -12 -37 9 -9 12 -8 12 5 0 9 9 21 20 27
11 6 20 15 20 20 0 17 -16 11 -40 -15z"/>
<path d="M620 835 c-19 -14 -39 -25 -46 -25 -20 0 -25 -42 -6 -57 16 -12 16
-14 -3 -29 -18 -15 -18 -16 -2 -10 10 3 21 6 23 6 2 0 4 7 4 15 0 21 9 19 36
-10 15 -16 29 -23 40 -18 12 4 15 2 12 -8 -3 -8 -10 -13 -16 -12 -6 2 -17 -7
-23 -20 -7 -12 -17 -25 -23 -29 -6 -4 3 -8 21 -8 20 0 36 -7 42 -17 10 -16 11
-16 17 5 4 14 14 22 28 21 15 -1 17 -3 4 -6 -13 -3 -15 -10 -7 -36 11 -40 11
-40 -3 -31 -8 5 -9 2 -5 -9 9 -24 -8 -21 -25 5 -13 19 -15 20 -21 5 -4 -11 -1
-17 7 -17 20 0 59 -47 51 -62 -5 -7 2 -4 13 7 39 37 49 43 68 42 11 -1 24 -9
31 -17 15 -18 17 -34 4 -26 -13 9 -42 -4 -35 -16 3 -5 12 -4 22 4 14 11 15 10
8 -6 -7 -19 -6 -19 13 -2 19 18 21 17 50 -16 16 -19 46 -43 67 -54 20 -10 49
-31 65 -46 20 -20 38 -28 64 -28 25 0 35 4 32 13 -2 7 -20 12 -42 12 -21 0
-40 5 -41 10 -2 6 16 32 41 59 45 48 49 66 17 66 -10 0 -29 8 -42 17 -14 10
-37 16 -52 14 -19 -2 -28 2 -28 12 0 8 -16 28 -37 44 l-36 30 39 -2 c43 -1 74
19 74 48 0 14 5 18 20 14 13 -3 20 0 20 9 0 10 -10 13 -37 9 -20 -2 -42 0 -49
6 -6 5 -22 12 -34 14 -13 2 -25 7 -28 10 -5 5 -42 -34 -42 -45 0 -4 -12 -20
-26 -36 -24 -26 -26 -27 -21 -7 3 12 0 24 -7 27 -6 3 -4 5 4 5 28 -2 40 1 40
9 0 5 -18 14 -40 21 -22 6 -40 15 -40 20 0 19 -75 81 -94 79 -28 -4 -49 -30
-33 -40 7 -5 3 -8 -10 -8 -19 0 -23 6 -23 29 0 28 22 47 41 35 5 -3 9 0 9 5 0
6 9 11 20 11 18 0 19 3 10 20 -14 27 -39 25 -80 -5z m-20 -53 c0 -26 -11 -34
-27 -21 -10 9 -10 15 -2 25 16 19 29 17 29 -4z m138 -88 c-7 -15 -14 -21 -16
-15 -2 7 2 18 8 26 18 22 21 18 8 -11z m198 -20 c29 -31 31 -49 4 -32 -11 7
-20 18 -20 25 0 7 -4 13 -10 13 -5 0 -10 5 -10 10 0 16 11 12 36 -16z m-249
-34 c4 -12 3 -13 -5 -1 -5 7 -15 10 -21 7 -6 -4 -11 -2 -11 4 0 17 33 8 37
-10z m208 -41 c11 -16 1 -19 -13 -3 -7 8 -8 14 -3 14 5 0 13 -5 16 -11z m-13
-71 c-9 -9 -15 -9 -24 1 -11 11 -10 13 5 8 10 -4 17 -2 17 5 0 6 3 8 7 5 4 -4
1 -13 -5 -19z m58 -64 c0 -17 -22 -14 -28 4 -2 7 3 12 12 12 9 0 16 -7 16 -16z"/>
<path d="M1381 824 c-33 -31 -23 -39 14 -10 15 12 24 25 19 28 -5 3 -20 -5
-33 -18z"/>
<path d="M162 828 c-8 -10 -5 -13 11 -14 12 0 30 -4 40 -8 9 -5 17 -4 17 1 0
6 -11 15 -25 21 -32 15 -30 15 -43 0z"/>
<path d="M100 818 c0 -18 97 -71 105 -58 3 5 1 10 -5 10 -6 0 -31 14 -56 30
-27 19 -44 26 -44 18z"/>
<path d="M367 792 c-14 -3 -17 -10 -13 -25 3 -12 6 -26 6 -31 0 -5 20 -6 45
-3 53 8 56 -2 14 -37 -21 -18 -29 -33 -27 -48 3 -21 8 -23 53 -20 l50 3 -27
-25 c-16 -14 -36 -29 -45 -35 -14 -8 -15 -13 -5 -35 10 -23 17 -26 66 -26 42
0 57 -4 65 -17 10 -16 10 -17 11 -1 0 28 -19 68 -32 68 -9 0 -13 15 -13 44 0
28 -6 51 -18 64 -12 13 -16 28 -12 44 9 37 -30 82 -66 74 -15 -3 -29 -2 -31 2
-2 4 -11 6 -21 4z"/>
<path d="M1408 781 c-16 -9 -28 -24 -28 -33 0 -16 2 -16 21 3 11 11 27 18 34
15 7 -2 12 1 11 9 -3 22 -9 23 -38 6z"/>
<path d="M973 778 c-14 -18 -23 -59 -12 -52 6 3 21 -1 34 -10 32 -21 37 -20
33 6 -2 16 -12 25 -33 29 -24 5 -27 7 -12 14 23 10 67 -20 67 -45 0 -11 5 -20
10 -20 17 0 11 56 -8 73 -22 20 -65 22 -79 5z"/>
<path d="M522 751 c-11 -7 -11 -9 2 -14 10 -4 16 -1 16 8 0 17 -1 17 -18 6z"/>
<path d="M71 714 c-1 -17 8 -22 54 -31 42 -7 55 -7 55 2 0 7 -21 15 -49 19
-27 4 -52 12 -54 19 -3 6 -6 3 -6 -9z"/>
<path d="M850 710 c0 -5 5 -10 11 -10 5 0 7 5 4 10 -3 6 -8 10 -11 10 -2 0 -4
-4 -4 -10z"/>
<path d="M1395 711 c-3 -6 3 -9 14 -8 11 0 17 5 15 9 -7 11 -22 10 -29 -1z"/>
<path d="M1372 680 c0 -14 2 -19 5 -12 2 6 2 18 0 25 -3 6 -5 1 -5 -13z"/>
<path d="M1423 680 c-35 -14 -28 -30 7 -17 17 6 30 15 30 19 0 10 -9 9 -37 -2z"/>
<path d="M60 661 c0 -6 4 -13 10 -16 6 -3 7 1 4 9 -7 18 -14 21 -14 7z"/>
<path d="M1433 632 c-18 -2 -33 -7 -33 -11 0 -5 12 -6 26 -3 15 3 29 -1 34 -7
5 -10 9 -9 13 3 8 19 1 22 -40 18z"/>
<path d="M1371 578 c0 -14 -4 -35 -7 -45 -5 -17 -5 -17 6 0 6 10 9 30 7 45
l-4 27 -2 -27z"/>
<path d="M201 564 c5 -15 8 -27 7 -28 -2 0 -13 -7 -25 -13 -13 -7 -30 -13 -38
-13 -8 0 -15 -5 -15 -11 0 -7 9 -9 23 -5 12 3 31 9 42 12 16 4 24 -4 40 -33
32 -60 112 -140 180 -177 73 -42 205 -86 249 -85 21 0 10 5 -34 15 -120 25
-206 65 -288 133 -55 45 -119 142 -127 192 -4 22 -11 39 -16 39 -5 0 -4 -12 2
-26z"/>
<path d="M1400 569 c0 -3 10 -9 23 -13 30 -8 37 -7 37 3 0 5 -13 11 -30 13
-16 3 -30 1 -30 -3z"/>
<path d="M127 563 c-4 -3 -7 -16 -7 -27 1 -20 1 -20 11 -3 6 10 20 22 32 27
21 8 21 9 -4 9 -14 1 -29 -2 -32 -6z"/>
<path d="M630 519 c0 -5 5 -7 10 -4 6 3 10 8 10 11 0 2 -4 4 -10 4 -5 0 -10
-5 -10 -11z"/>
<path d="M1386 522 c-3 -6 8 -12 24 -14 19 -3 29 -1 27 6 -5 14 -43 20 -51 8z"/>
<path d="M1335 473 c-47 -86 -168 -181 -279 -218 -89 -30 -136 -38 -246 -46
l-115 -7 121 2 c83 2 121 0 121 -8 -1 -45 5 -76 14 -76 6 0 9 19 7 46 l-3 46
80 26 c93 31 152 64 216 121 44 39 116 137 107 146 -2 2 -13 -12 -23 -32z"/>
<path d="M176 464 c-15 -14 -26 -27 -23 -30 8 -9 56 29 57 44 0 16 0 16 -34
-14z"/>
<path d="M1382 468 c6 -18 37 -23 52 -8 8 10 7 11 -4 8 -8 -3 -23 -1 -34 4
-14 8 -17 7 -14 -4z"/>
<path d="M201 418 c-28 -35 -25 -43 8 -19 13 10 22 24 20 33 -3 11 -10 7 -28
-14z"/>
<path d="M1347 444 c-3 -3 6 -17 21 -29 16 -14 31 -20 36 -15 6 6 -1 17 -15
29 -26 22 -32 24 -42 15z"/>
<path d="M1320 403 c0 -20 39 -46 57 -38 17 8 17 8 -2 13 -11 2 -28 11 -37 20
-10 8 -18 11 -18 5z"/>
<path d="M238 389 c-11 -6 -18 -21 -17 -37 1 -21 2 -22 6 -7 3 11 12 28 21 38
17 19 15 21 -10 6z"/>
<path d="M273 351 c-6 -18 -7 -31 -2 -31 12 0 22 24 17 45 -2 12 -7 7 -15 -14z"/>
<path d="M1290 372 c0 -5 7 -16 16 -23 14 -12 16 -11 13 5 -4 20 -29 35 -29
18z"/>
<path d="M1260 345 c0 -3 11 -18 25 -32 31 -34 44 -24 14 11 -21 24 -39 34
-39 21z"/>
<path d="M315 309 c-5 -14 -13 -19 -26 -16 -10 3 -19 3 -19 0 0 -7 31 -36 34
-32 16 21 36 55 36 61 0 17 -19 7 -25 -13z"/>
<path d="M1236 308 c42 -69 63 -98 67 -91 6 9 -54 103 -66 103 -4 0 -5 -6 -1
-12z"/>
<path d="M350 271 c-15 -29 2 -33 23 -5 15 20 16 24 3 24 -8 0 -20 -9 -26 -19z"/>
<path d="M418 241 c3 -33 0 -44 -23 -65 -23 -22 -24 -24 -5 -19 43 11 64 71
37 107 -11 15 -12 12 -9 -23z"/>
<path d="M1163 273 c-9 -3 -9 -11 3 -28 9 -13 13 -29 9 -35 -3 -5 -2 -10 4
-10 6 0 13 -11 17 -24 4 -16 11 -23 20 -19 10 3 11 9 5 17 -5 6 -18 32 -28 57
-10 27 -23 44 -30 42z"/>
<path d="M1117 243 c-13 -12 -7 -54 8 -59 8 -4 15 -15 15 -25 0 -14 7 -19 28
-18 27 0 27 0 3 10 -16 6 -22 15 -18 28 3 13 -2 21 -15 25 -15 3 -19 11 -15
25 5 22 4 25 -6 14z"/>
<path d="M1064 214 c3 -9 9 -27 12 -40 3 -13 10 -22 14 -19 9 6 -12 75 -24 75
-4 0 -5 -7 -2 -16z"/>
<path d="M320 201 c0 -5 7 -15 17 -22 15 -13 15 -12 4 9 -12 23 -21 28 -21 13z"/>
<path d="M500 208 c0 -3 6 -18 14 -33 9 -17 16 -22 21 -15 4 7 -2 21 -14 33
-11 12 -21 19 -21 15z"/>
<path d="M573 203 c16 -4 22 -21 18 -52 -2 -7 2 -10 8 -6 26 15 3 66 -28 64
-12 -1 -12 -2 2 -6z"/>
<path d="M1033 180 c6 -16 13 -27 15 -25 7 7 -8 55 -17 55 -5 0 -4 -13 2 -30z"/>
<path d="M630 155 c0 -19 5 -35 11 -35 5 0 8 4 5 9 -4 5 -2 21 4 35 7 21 6 26
-5 26 -10 0 -15 -11 -15 -35z"/>
<path d="M981 174 c-1 -12 6 -28 16 -35 15 -13 15 -12 6 6 -6 11 -13 27 -16
35 -4 10 -6 8 -6 -6z"/>
<path d="M750 176 c0 -18 24 -76 32 -76 4 0 8 3 8 8 -1 12 -39 78 -40 68z"/>
<path d="M800 159 c0 -27 18 -59 32 -59 9 0 9 3 0 12 -7 7 -12 25 -12 40 0 15
-4 28 -10 28 -5 0 -10 -9 -10 -21z"/>
<path d="M850 146 c0 -44 11 -97 19 -92 10 6 0 126 -10 126 -5 0 -9 -15 -9
-34z"/>
<path d="M891 153 c0 -18 1 -33 3 -33 2 0 13 -3 23 -7 17 -6 17 -5 2 13 -10
10 -19 28 -22 39 -3 13 -5 9 -6 -12z"/>
<path d="M670 162 c0 -5 9 -17 20 -27 15 -14 20 -15 20 -4 0 8 -9 20 -20 27
-11 7 -20 8 -20 4z"/>
<path d="M725 121 c-3 -5 -1 -12 5 -16 5 -3 10 1 10 9 0 18 -6 21 -15 7z"/>
<path d="M1090 120 c0 -5 5 -10 10 -10 6 0 10 5 10 10 0 6 -4 10 -10 10 -5 0
-10 -4 -10 -10z"/>
<path d="M620 79 c0 -5 5 -7 10 -4 6 3 10 8 10 11 0 2 -4 4 -10 4 -5 0 -10 -5
-10 -11z"/>
</g>
</svg>
